<?xml version="1.0" encoding="UTF-8" standalone="no"?>
<svg
   xmlns:dc="http://purl.org/dc/elements/1.1/"
   xmlns:cc="http://creativecommons.org/ns#"
   xmlns:rdf="http://www.w3.org/1999/02/22-rdf-syntax-ns#"
   xmlns:svg="http://www.w3.org/2000/svg"
   xmlns="http://www.w3.org/2000/svg"
   xmlns:sodipodi="http://sodipodi.sourceforge.net/DTD/sodipodi-0.dtd"
   xmlns:inkscape="http://www.inkscape.org/namespaces/inkscape"
   viewBox="0 0 512 512"
   version="1.1"
   id="svg4"
   sodipodi:docname="heart_violet.svg"
   inkscape:version="1.0.1 (3bc2e813f5, 2020-09-07)"
   inkscape:export-filename="D:\PROJET\PROJET-3\jeanlucfeuray_3_16082021\images\icone\heart_violet.png"
   inkscape:export-xdpi="2.8124981"
   inkscape:export-ydpi="2.8124981">
  <metadata
     id="metadata10">
    <rdf:RDF>
      <cc:Work
         rdf:about="">
        <dc:format>image/svg+xml</dc:format>
        <dc:type
           rdf:resource="http://purl.org/dc/dcmitype/StillImage" />
      </cc:Work>
    </rdf:RDF>
  </metadata>
  <defs
     id="defs8" />
  <sodipodi:namedview
     pagecolor="#ffffff"
     bordercolor="#666666"
     borderopacity="1"
     objecttolerance="10"
     gridtolerance="10"
     guidetolerance="10"
     inkscape:pageopacity="0"
     inkscape:pageshadow="2"
     inkscape:window-width="1920"
     inkscape:window-height="1046"
     id="namedview6"
     showgrid="false"
     inkscape:zoom="1.4355469"
     inkscape:cx="256"
     inkscape:cy="256"
     inkscape:window-x="-11"
     inkscape:window-y="-11"
     inkscape:window-maximized="1"
     inkscape:current-layer="svg4"
     inkscape:document-rotation="0" />
  <path
     d="M 458.4,64.3 C 400.6,15.7 311.3,23 256,79.3 200.7,23 111.4,15.6 53.6,64.3 -21.6,127.6 -10.6,230.8 43,285.5 l 175.4,178.7 c 10,10.2 23.4,15.9 37.6,15.9 14.3,0 27.6,-5.6 37.6,-15.8 L 469,285.6 C 522.5,230.9 533.7,127.7 458.4,64.3 Z"
     id="path2"
     style="display:inline;fill:#9356dc;fill-opacity:1;stroke:#9356dc;stroke-width:0;stroke-miterlimit:4;stroke-dasharray:none;stroke-opacity:1"
     sodipodi:nodetypes="cccccsccc" />
  <path
     style="display:none;opacity:0;fill:#9356dc;fill-opacity:1;stroke:none;stroke-width:1.25597;stroke-linecap:round;stroke-linejoin:round;stroke-opacity:1;paint-order:stroke fill markers"
     d="M 244.81719,421.96462 C 231.82769,408.91988 88.265622,262.45982 78.343698,252.13066 74.116267,247.72972 68.836426,241.3921 66.610716,238.04706 45.39398,206.16027 42.485544,166.53706 58.966315,133.90322 63.762205,124.4068 69.281352,116.80441 77.322452,108.61843 96.257327,89.342387 118.70058,79.944994 145.62424,80.019246 c 17.74473,0.04894 31.39156,3.465432 48.06978,12.034309 12.7738,6.562874 18.41632,11.275505 41.42958,34.601945 l 20.91953,21.2042 19.13489,-19.52407 c 25.29268,-25.80708 30.85973,-30.392249 45.8896,-37.795916 37.89154,-18.665248 81.33789,-12.787769 110.69025,14.974326 16.50794,15.61357 26.87633,35.06077 30.45439,57.12097 1.47451,9.09102 1.32293,24.26695 -0.33953,33.99126 -2.67479,15.64583 -10.04378,33.02981 -19.13171,45.13306 -2.69432,3.58826 -36.11268,38.20275 -85.70901,88.77672 -98.53023,100.47248 -99.41007,101.3551 -101.03526,101.3551 -0.73935,0 -5.5366,-4.25956 -11.17956,-9.92653 z"
     id="path830"
     sodipodi:insensitive="true" />
  <path
     style="display:none;opacity:0;fill:#9356dc;fill-opacity:1;stroke:none;stroke-width:1.25597;stroke-linecap:round;stroke-linejoin:round;stroke-opacity:1;paint-order:stroke fill markers"
     d="M 244.81719,421.96462 C 231.82769,408.91988 88.265622,262.45982 78.343698,252.13066 74.116267,247.72972 68.836426,241.3921 66.610716,238.04706 45.39398,206.16027 42.485544,166.53706 58.966315,133.90322 63.762205,124.4068 69.281352,116.80441 77.322452,108.61843 96.257327,89.342387 118.70058,79.944994 145.62424,80.019246 c 17.74473,0.04894 31.39156,3.465432 48.06978,12.034309 12.7738,6.562874 18.41632,11.275505 41.42958,34.601945 l 20.91953,21.2042 19.13489,-19.52407 c 25.29268,-25.80708 30.85973,-30.392249 45.8896,-37.795916 37.89154,-18.665248 81.33789,-12.787769 110.69025,14.974326 16.50794,15.61357 26.87633,35.06077 30.45439,57.12097 1.47451,9.09102 1.32293,24.26695 -0.33953,33.99126 -2.67479,15.64583 -10.04378,33.02981 -19.13171,45.13306 -2.69432,3.58826 -36.11268,38.20275 -85.70901,88.77672 -98.53023,100.47248 -99.41007,101.3551 -101.03526,101.3551 -0.73935,0 -5.5366,-4.25956 -11.17956,-9.92653 z"
     id="path832"
     sodipodi:insensitive="true" />
  <path
     style="opacity:0;fill:#9356dc;fill-opacity:1;stroke:none;stroke-width:0;stroke-linecap:round;stroke-linejoin:round;stroke-miterlimit:4;stroke-dasharray:none;stroke-opacity:1;paint-order:stroke fill markers"
     d="M 244.81719,421.96462 C 231.82769,408.91988 88.265622,262.45982 78.343698,252.13066 74.116267,247.72972 68.836426,241.3921 66.610716,238.04706 45.39398,206.16027 42.485544,166.53706 58.966315,133.90322 63.762205,124.4068 69.281352,116.80441 77.322452,108.61843 96.257327,89.342387 118.70058,79.944994 145.62424,80.019246 c 17.74473,0.04894 31.39156,3.465432 48.06978,12.034309 12.7738,6.562874 18.41632,11.275505 41.42958,34.601945 l 20.91953,21.2042 19.13489,-19.52407 c 25.29268,-25.80708 30.85973,-30.392249 45.8896,-37.795916 37.89154,-18.665248 81.33789,-12.787769 110.69025,14.974326 16.50794,15.61357 26.87633,35.06077 30.45439,57.12097 1.47451,9.09102 1.32293,24.26695 -0.33953,33.99126 -2.67479,15.64583 -10.04378,33.02981 -19.13171,45.13306 -2.69432,3.58826 -36.11268,38.20275 -85.70901,88.77672 -98.53023,100.47248 -99.41007,101.3551 -101.03526,101.3551 -0.73935,0 -5.5366,-4.25956 -11.17956,-9.92653 z"
     id="path834" />
  <path
     style="opacity:0;fill:#9356dc;fill-opacity:1;stroke:none;stroke-width:0;stroke-linecap:round;stroke-linejoin:round;stroke-miterlimit:4;stroke-dasharray:none;stroke-opacity:1;paint-order:stroke fill markers"
     d="M 244.81719,421.96462 C 231.82769,408.91988 88.265622,262.45982 78.343698,252.13066 74.116267,247.72972 68.836426,241.3921 66.610716,238.04706 45.39398,206.16027 42.485544,166.53706 58.966315,133.90322 63.762205,124.4068 69.281352,116.80441 77.322452,108.61843 96.257327,89.342387 118.70058,79.944994 145.62424,80.019246 c 17.74473,0.04894 31.39156,3.465432 48.06978,12.034309 12.7738,6.562874 18.41632,11.275505 41.42958,34.601945 l 20.91953,21.2042 19.13489,-19.52407 c 25.29268,-25.80708 30.85973,-30.392249 45.8896,-37.795916 37.89154,-18.665248 81.33789,-12.787769 110.69025,14.974326 16.50794,15.61357 26.87633,35.06077 30.45439,57.12097 1.47451,9.09102 1.32293,24.26695 -0.33953,33.99126 -2.67479,15.64583 -10.04378,33.02981 -19.13171,45.13306 -2.69432,3.58826 -36.11268,38.20275 -85.70901,88.77672 -98.53023,100.47248 -99.41007,101.3551 -101.03526,101.3551 -0.73935,0 -5.5366,-4.25956 -11.17956,-9.92653 z"
     id="path836" />
  <path
     style="opacity:0;fill:#9356dc;fill-opacity:1;stroke:none;stroke-width:0;stroke-linecap:round;stroke-linejoin:round;stroke-miterlimit:4;stroke-dasharray:none;stroke-opacity:1;paint-order:stroke fill markers"
     d="M 244.81719,421.96462 C 231.82769,408.91988 88.265622,262.45982 78.343698,252.13066 74.116267,247.72972 68.836426,241.3921 66.610716,238.04706 45.39398,206.16027 42.485544,166.53706 58.966315,133.90322 63.762205,124.4068 69.281352,116.80441 77.322452,108.61843 96.257327,89.342387 118.70058,79.944994 145.62424,80.019246 c 17.74473,0.04894 31.39156,3.465432 48.06978,12.034309 12.7738,6.562874 18.41632,11.275505 41.42958,34.601945 l 20.91953,21.2042 19.13489,-19.52407 c 25.29268,-25.80708 30.85973,-30.392249 45.8896,-37.795916 37.89154,-18.665248 81.33789,-12.787769 110.69025,14.974326 16.50794,15.61357 26.87633,35.06077 30.45439,57.12097 1.47451,9.09102 1.32293,24.26695 -0.33953,33.99126 -2.67479,15.64583 -10.04378,33.02981 -19.13171,45.13306 -2.69432,3.58826 -36.11268,38.20275 -85.70901,88.77672 -98.53023,100.47248 -99.41007,101.3551 -101.03526,101.3551 -0.73935,0 -5.5366,-4.25956 -11.17956,-9.92653 z"
     id="path838" />
  <path
     style="opacity:0;fill:#9356dc;fill-opacity:1;stroke:none;stroke-width:0;stroke-linecap:round;stroke-linejoin:round;stroke-miterlimit:4;stroke-dasharray:none;stroke-opacity:1;paint-order:stroke fill markers"
     d=""
     id="path840" />
</svg>
