<?xml version="1.0" encoding="UTF-8" standalone="no"?>
<svg
   xmlns:dc="http://purl.org/dc/elements/1.1/"
   xmlns:cc="http://creativecommons.org/ns#"
   xmlns:rdf="http://www.w3.org/1999/02/22-rdf-syntax-ns#"
   xmlns:svg="http://www.w3.org/2000/svg"
   xmlns="http://www.w3.org/2000/svg"
   xmlns:sodipodi="http://sodipodi.sourceforge.net/DTD/sodipodi-0.dtd"
   xmlns:inkscape="http://www.inkscape.org/namespaces/inkscape"
   viewBox="0 0 416 512"
   version="1.1"
   id="svg4"
   sodipodi:docname="utensils2.svg"
   inkscape:version="1.0.1 (3bc2e813f5, 2020-09-07)">
  <metadata
     id="metadata10">
    <rdf:RDF>
      <cc:Work
         rdf:about="">
        <dc:format>image/svg+xml</dc:format>
        <dc:type
           rdf:resource="http://purl.org/dc/dcmitype/StillImage" />
      </cc:Work>
    </rdf:RDF>
  </metadata>
  <defs
     id="defs8" />
  <sodipodi:namedview
     pagecolor="#ffffff"
     bordercolor="#666666"
     borderopacity="1"
     objecttolerance="10"
     gridtolerance="10"
     guidetolerance="10"
     inkscape:pageopacity="0"
     inkscape:pageshadow="2"
     inkscape:window-width="1920"
     inkscape:window-height="1046"
     id="namedview6"
     showgrid="false"
     inkscape:zoom="1.4355469"
     inkscape:cx="208"
     inkscape:cy="256"
     inkscape:window-x="-11"
     inkscape:window-y="-11"
     inkscape:window-maximized="1"
     inkscape:current-layer="svg4" />
  <path
     d="m 207.9,15.2 c 0.8,4.7 16.1,94.5 16.1,128.8 0,52.3 -27.8,89.6 -68.9,104.6 L 168,486.7 c 0.7,13.7 -10.2,25.3 -24,25.3 H 80 C 66.3,512 55.3,500.5 56,486.7 L 68.9,248.6 C 27.7,233.6 0,196.2 0,144 0,109.6 15.3,19.9 16.1,15.2 19.3,-5.1 61.4,-5.4 64,16.3 v 141.2 c 1.3,3.4 15.1,3.2 16,0 1.4,-25.3 7.9,-139.2 8,-141.8 3.3,-20.8 44.7,-20.8 47.9,0 0.2,2.7 6.6,116.5 8,141.8 0.9,3.2 14.8,3.4 16,0 V 16.3 c 2.6,-21.6 44.8,-21.4 48,-1.1 z m 119.2,285.7 -15,185.1 c -1.2,14 9.9,26 23.9,26 h 56 c 13.3,0 24,-10.7 24,-24 V 24 C 416,10.8 405.3,0 392,0 309.5,0 170.6,178.5 327.1,300.9 Z"
     id="path2"
     style="display:inline;fill:#ffffff" />
</svg>
